HIERARCHY
ROOT Hips
{
	OFFSET 0.00000 0.00000 0.00000
	CHANNELS 6 Xposition Yposition Zposition Zrotation Yrotation Xrotation 
	JOINT LHipJoint
	{
		OFFSET 0 0 0
		CHANNELS 3 Zrotation Yrotation Xrotation
		JOINT LeftHip
		{
			OFFSET 1.55766 -1.60504 1.11378
			CHANNELS 3 Zrotation Yrotation Xrotation
			JOINT LeftKnee
			{
				OFFSET 2.29047 -6.29302 0.00000
				CHANNELS 3 Zrotation Yrotation Xrotation
				JOINT LeftAnkle
				{
					OFFSET 2.52265 -6.93093 0.00000
					CHANNELS 3 Zrotation Yrotation Xrotation
					JOINT LeftToe
					{
						OFFSET 0.17633 -0.48446 2.02656
						CHANNELS 3 Zrotation Yrotation Xrotation
						End Site
						{
							OFFSET 0.00000 -0.00000 1.04989
						}
					}
				}
			}
		}
	}
	JOINT RHipJoint
	{
		OFFSET 0 0 0
		CHANNELS 3 Zrotation Yrotation Xrotation
		JOINT RightHip
		{
			OFFSET -1.48599 -1.60504 1.11378
			CHANNELS 3 Zrotation Yrotation Xrotation
			JOINT RightKnee
			{
				OFFSET -2.27280 -6.24448 0.00000
				CHANNELS 3 Zrotation Yrotation Xrotation
				JOINT RightAnkle
				{
					OFFSET -2.50834 -6.89161 0.00000
					CHANNELS 3 Zrotation Yrotation Xrotation
					JOINT RightToe
					{
						OFFSET -0.26967 -0.74090 2.08741
						CHANNELS 3 Zrotation Yrotation Xrotation
						End Site
						{
							OFFSET -0.00000 -0.00000 1.10614
						}
					}
				}
			}
		}
	}
	JOINT lowerback
	{
		OFFSET 0 0 0
		CHANNELS 3 Zrotation Yrotation Xrotation
		JOINT Chest
		{
			OFFSET 0.06481 2.02437 -0.08472
			CHANNELS 3 Zrotation Yrotation Xrotation
			JOINT Chest2
			{
				OFFSET 0.00015 1.96711 0.18069
				CHANNELS 3 Zrotation Yrotation Xrotation
				JOINT lowerneck
				{
					OFFSET 0 0 0
					CHANNELS 3 Zrotation Yrotation Xrotation
					JOINT Neck
					{
						OFFSET -0.29961 1.68293 -0.13041
						CHANNELS 3 Zrotation Yrotation Xrotation
						JOINT Head
						{
							OFFSET 0.59697 1.61501 -0.14669
							CHANNELS 3 Zrotation Yrotation Xrotation
							End Site
							{
								OFFSET 0.22973 1.74906 -0.10148
							}
						}
					}
				}
				JOINT LeftCollar
				{
					OFFSET 0 0 0
					CHANNELS 3 Zrotation Yrotation Xrotation
					JOINT LeftShoulder
					{
						OFFSET 3.37968 1.02893 0.31147
CHANNELS 3 Zrotation Xrotation Yrotation
						JOINT LeftElbow
						{
OFFSET 0 -5.198070 -0.000000
CHANNELS 3 Zrotation Xrotation Yrotation
							JOINT LeftWrist
							{
OFFSET 0 -3.093700 -0.000000
CHANNELS 3 Zrotation Xrotation Yrotation
								JOINT lhand
								{
									OFFSET 0 0 0
CHANNELS 3 Zrotation Xrotation Yrotation
									JOINT LFingers
									{
OFFSET 0 -0.672630 -0.000000
CHANNELS 3 Zrotation Xrotation Yrotation
										End Site
										{
OFFSET 0 -0.542290 -0.000000
										}
									}
								}
								JOINT LThumb
								{
OFFSET 0 0.000000 0.000000
CHANNELS 3 Zrotation Xrotation Yrotation
									End Site
									{
OFFSET 0 -0.550570 0.550570
									}
								}
							}
						}
					}
				}
				JOINT RightCollar
				{
					OFFSET 0 0 0
					CHANNELS 3 Zrotation Yrotation Xrotation
					JOINT RightShoulder
					{
						OFFSET -3.38254 0.96355 -0.16120
CHANNELS 3 Zrotation Xrotation Yrotation
						JOINT RightElbow
						{
OFFSET 0 -5.452220 -0.000000
CHANNELS 3 Zrotation Xrotation Yrotation
							JOINT RightWrist
							{
OFFSET 0 -3.012840 -0.000000
CHANNELS 3 Zrotation Xrotation Yrotation
								JOINT rhand
								{
									OFFSET 0 0 0
CHANNELS 3 Zrotation Xrotation Yrotation
									JOINT RFingers
									{
OFFSET 0 -0.622300 -0.000000
CHANNELS 3 Zrotation Xrotation Yrotation
										End Site
										{
OFFSET 0 -0.501710 -0.000000
										}
									}
								}
								JOINT RThumb
								{
OFFSET 0 0.000000 0.000000
CHANNELS 3 Zrotation Xrotation Yrotation
									End Site
									{
OFFSET 0 -0.509370 0.509370
									}
								}
							}
						}
					}
				}
			}
		}
	}
}
MOTION
Frames: 12
Frame Time: 0.008333333333333333
-6.124100 15.996700 39.361800 -177.830000 -16.018800 -165.695000 0.000000 0.000000 0.000000 -15.583400 -1.574700 -28.675400 2.250900 9.370100 26.960100 0.551500 -13.585000 -15.242900 1.328900 -7.300200 -20.607700 0.000000 0.000000 0.000000 23.876700 -4.857900 -23.547000 -1.550000 -7.858200 22.284200 -0.476100 16.529300 -15.922100 -0.530800 4.668700 -12.966000 5.429900 5.177300 -13.253300 -1.672500 5.876500 -3.755400 -3.809600 2.792700 4.164200 -25.643500 -2.167600 3.777000 37.605400 -7.115800 2.939500 18.376700 -4.685500 2.521000 0.000000 0.000000 0.000000 57.968100 25.873800 -97.219400 134.007300 -51.245700 96.989700 25.714100 -102.911600 -28.987300 0.000000 0.000000 0.000000 -7.125000 0.000000 0.000000 -6.097400 61.465700 2.449200 0.000000 0.000000 0.000000 -53.802100 27.721000 94.290900 -130.974500 -52.594800 -94.602000 27.910500 -77.791200 30.962600 0.000000 0.000000 0.000000 7.125000 0.000000 -0.000000 58.284600 51.897000 -13.778300
-6.119267 15.995383 39.369749 -177.719002 -15.980951 -165.718195 0.000000 0.000000 0.000000 -15.439378 -1.668032 -28.695107 2.259262 9.386424 27.011759 0.574086 -13.344911 -15.351145 1.380150 -7.433822 -21.007243 0.000000 0.000000 0.000000 23.970925 -4.669867 -23.538008 -1.556778 -7.874431 22.333284 -0.488713 16.390020 -15.956904 -0.545231 4.730705 -13.141953 5.450318 5.114945 -13.044881 -1.579347 5.797434 -3.814853 -3.755969 2.747425 3.972024 -25.724937 -2.266501 3.770658 37.733608 -7.306542 2.914960 18.456460 -4.795706 2.598011 0.000000 0.000000 0.000000 57.574724 26.143235 -96.539076 131.695597 -52.285142 95.172755 20.159078 -102.791080 -31.470689 0.000000 0.000000 0.000000 -7.125000 0.000000 0.000000 -14.097552 62.541808 6.071087 0.000000 0.000000 0.000000 -53.874043 27.991540 91.888303 -125.062603 -54.790793 -89.832305 36.908603 -72.580516 23.531629 0.000000 0.000000 0.000000 7.125000 0.000000 0.000000 57.045962 45.177683 -0.400882
-6.105615 15.996900 39.381134 -177.823636 -16.065063 -165.619083 0.000000 0.000000 0.000000 -15.478531 -1.917665 -28.719214 2.250649 9.369733 26.958872 0.582948 -13.142836 -15.352993 1.416198 -7.526223 -21.284015 0.000000 0.000000 0.000000 23.864161 -4.377420 -23.629149 -1.577865 -7.925010 22.486526 -0.528677 15.990723 -16.095848 -0.558226 4.785704 -13.298424 5.069747 4.915815 -13.058396 -1.421874 5.577595 -3.758634 -3.416319 2.639039 3.963513 -26.083225 -2.444232 3.688325 38.014501 -7.608953 2.802797 18.681765 -4.967384 2.733580 0.000000 0.000000 0.000000 56.680630 26.416486 -95.343116 128.367980 -53.627850 92.515695 10.589398 -103.328125 -33.757190 0.000000 0.000000 0.000000 -7.125000 0.000000 0.000000 -26.572218 62.218286 11.573979 0.000000 0.000000 0.000000 -53.237492 27.851993 88.863609 -117.777390 -56.856816 -83.799967 42.805249 -61.578854 15.525183 0.000000 0.000000 0.000000 7.125000 0.000000 0.000000 52.496190 37.276259 16.106247
-6.089929 15.995656 39.393183 -177.958624 -16.089015 -165.610818 0.000000 0.000000 0.000000 -15.547500 -2.133974 -28.603565 2.234097 9.337564 26.857136 0.595633 -12.877172 -15.368839 1.456244 -7.627443 -21.588066 0.000000 0.000000 0.000000 23.696635 -3.978068 -23.609412 -1.610145 -8.001911 22.719847 -0.582138 15.492622 -16.310585 -0.575479 4.858097 -13.504239 4.742770 4.773523 -12.790044 -1.345362 5.446346 -3.774319 -3.197350 2.570559 3.750991 -26.329169 -2.625158 3.803972 38.239093 -7.922309 2.580734 18.847705 -5.160135 2.799427 0.000000 0.000000 0.000000 55.692263 26.639270 -93.840979 124.170431 -55.085662 89.103215 -1.706455 -104.014698 -36.344094 0.000000 0.000000 0.000000 -7.125000 0.000000 0.000000 -41.689220 61.252396 18.263700 0.000000 0.000000 0.000000 -52.020933 27.736256 85.430867 -109.391792 -58.514253 -76.708375 46.992459 -48.971475 8.586382 0.000000 0.000000 0.000000 7.125000 0.000000 0.000000 47.997430 28.495712 31.548837
-6.072588 15.992067 39.404227 -178.093386 -16.053828 -165.687159 0.000000 0.000000 0.000000 -15.604638 -2.340375 -28.378698 2.218650 9.307361 26.761779 0.614684 -12.531867 -15.417808 1.498989 -7.733672 -21.908057 0.000000 0.000000 0.000000 23.520286 -3.547923 -23.489505 -1.644873 -8.083444 22.967865 -0.636397 14.981573 -16.540504 -0.595074 4.938528 -13.733254 4.447532 4.664014 -12.378971 -1.303609 5.363444 -3.806357 -3.033532 2.526165 3.455662 -26.520877 -2.845948 4.061979 38.414530 -8.298386 2.268795 18.966012 -5.395267 2.834633 0.000000 0.000000 0.000000 54.346871 26.822848 -91.721726 118.711622 -56.639996 84.584031 -16.830861 -105.134837 -37.346806 0.000000 0.000000 0.000000 -7.125000 0.000000 0.000000 -56.424457 58.306708 22.902019 0.000000 0.000000 0.000000 -50.152554 27.523274 81.502738 -100.102289 -59.604297 -68.736778 49.362284 -38.026548 4.049328 0.000000 0.000000 0.000000 7.125000 0.000000 0.000000 45.378427 21.544338 41.613992
-6.053358 15.988735 39.415322 -178.192933 -16.005029 -165.751284 0.000000 0.000000 0.000000 -15.602140 -2.587426 -28.176983 2.206731 9.284061 26.687944 0.636007 -12.125622 -15.473633 1.543428 -7.842172 -22.235694 0.000000 0.000000 0.000000 23.378718 -3.002426 -23.344142 -1.676499 -8.156905 23.191792 -0.690956 14.374791 -16.750618 -0.619023 5.034952 -14.008268 4.205113 4.579782 -11.961164 -1.282300 5.303457 -3.872430 -2.917948 2.491418 3.130482 -26.623347 -3.089933 4.471100 38.510819 -8.700963 1.856724 19.012365 -5.652092 2.816018 0.000000 0.000000 0.000000 52.572938 26.921479 -88.886011 111.808200 -58.117936 78.766390 -31.661332 -105.096357 -34.828292 0.000000 0.000000 0.000000 -7.125000 0.000000 0.000000 -65.100249 53.568468 20.242412 0.000000 0.000000 0.000000 -47.684484 27.178399 77.211316 -90.458296 -59.991366 -60.396938 49.880029 -31.631515 2.667364 0.000000 0.000000 0.000000 7.125000 0.000000 0.000000 44.729479 19.419569 44.311665
-6.033706 15.986077 39.425509 -178.236705 -15.920670 -165.787636 0.000000 0.000000 0.000000 -15.533710 -2.836299 -28.041011 2.201194 9.273124 26.653466 0.660397 -11.682282 -15.556366 1.591296 -7.957022 -22.583670 0.000000 0.000000 0.000000 23.295606 -2.389954 -23.208545 -1.702799 -8.217389 23.376426 -0.738205 13.761646 -16.917810 -0.644217 5.134580 -14.292708 4.022004 4.486453 -11.605167 -1.225326 5.216515 -3.935015 -2.797492 2.443761 2.842884 -26.798688 -3.346320 4.899004 38.577289 -9.108575 1.409528 19.057813 -5.909373 2.790300 0.000000 0.000000 0.000000 50.243275 26.944048 -85.298152 103.610405 -59.273541 71.757177 -42.031343 -101.936297 -30.367110 0.000000 0.000000 0.000000 -7.125000 0.000000 0.000000 -66.582769 48.994281 11.168346 0.000000 0.000000 0.000000 -44.811127 26.502685 72.711712 -80.838081 -59.663618 -52.075374 48.333763 -29.185673 3.943287 0.000000 0.000000 0.000000 7.125000 0.000000 0.000000 45.442380 22.357111 40.026694
-6.015163 15.982818 39.433075 -178.214715 -15.784666 -165.834018 0.000000 0.000000 0.000000 -15.401102 -3.040588 -27.937651 2.204937 9.280459 26.676685 0.689298 -11.226479 -15.687012 1.642928 -8.078961 -22.954227 0.000000 0.000000 0.000000 23.286409 -1.808826 -23.070629 -1.724399 -8.266799 23.527417 -0.774014 13.253739 -17.043888 -0.664248 5.212282 -14.515079 3.910733 4.360648 -11.312396 -1.098871 5.075492 -3.932268 -2.645236 2.373874 2.654001 -27.141654 -3.658703 5.227325 38.656824 -9.577788 0.944482 19.139739 -6.187527 2.818279 0.000000 0.000000 0.000000 47.291434 26.841649 -81.065114 94.363742 -59.910221 63.777468 -46.772337 -95.702123 -26.428835 0.000000 0.000000 0.000000 -7.125000 0.000000 0.000000 -64.038546 45.506914 1.459517 0.000000 0.000000 0.000000 -41.673788 25.364892 68.025989 -71.245913 -58.607915 -43.836353 44.695684 -27.115339 6.307328 0.000000 0.000000 0.000000 7.125000 0.000000 0.000000 46.688850 27.491890 31.580122
-5.996314 15.978514 39.438908 -178.146895 -15.628126 -165.885060 0.000000 0.000000 0.000000 -15.217755 -3.205656 -27.872696 2.217100 9.304378 26.752041 0.718539 -10.794067 -15.839109 1.688756 -8.185308 -23.278351 0.000000 0.000000 0.000000 23.331271 -1.200897 -22.917099 -1.743966 -8.311180 23.663283 -0.806927 12.746032 -17.159062 -0.683327 5.285182 -14.723773 3.868371 4.226332 -11.055389 -0.947327 4.914014 -3.901599 -2.503915 2.295558 2.516647 -27.491574 -4.030264 5.579778 38.695103 -10.122110 0.422565 19.184689 -6.500960 2.856876 0.000000 0.000000 0.000000 43.884866 26.519330 -76.442479 84.219412 -59.860134 54.996527 -46.690473 -87.024792 -23.629756 0.000000 0.000000 0.000000 -7.125000 0.000000 0.000000 -60.844514 43.361964 -4.347304 0.000000 0.000000 0.000000 -38.261408 23.892937 63.077091 -61.728824 -56.737698 -35.786532 39.147631 -22.517134 8.284874 0.000000 0.000000 0.000000 7.125000 0.000000 0.000000 46.892941 31.869730 22.802398
-5.975936 15.973426 39.444357 -178.078631 -15.455332 -165.917369 0.000000 0.000000 0.000000 -15.030692 -3.348224 -27.847895 2.232893 9.335175 26.849683 0.746046 -10.384838 -15.991804 1.726680 -8.271884 -23.543021 0.000000 0.000000 0.000000 23.363217 -0.438175 -22.732906 -1.766258 -8.361297 23.816849 -0.846707 12.086460 -17.303746 -0.706149 5.370900 -14.969526 3.833309 4.095414 -10.865326 -0.789764 4.750642 -3.876812 -2.355560 2.215552 2.410625 -27.792424 -4.409339 6.070903 38.676806 -10.689987 -0.146074 19.182330 -6.832442 2.859028 0.000000 0.000000 0.000000 40.120525 25.975979 -71.508556 73.575236 -58.952931 45.826038 -42.192695 -76.430088 -21.272615 0.000000 0.000000 0.000000 -7.125000 0.000000 0.000000 -57.234043 42.445851 -5.943875 0.000000 0.000000 0.000000 -34.631071 22.191932 57.772156 -52.635596 -54.001575 -28.293811 31.556578 -15.243599 9.357274 0.000000 0.000000 0.000000 7.125000 0.000000 0.000000 44.611264 34.762763 15.588721
-5.954737 15.967213 39.448179 -178.071314 -15.232072 -165.949553 0.000000 0.000000 0.000000 -14.916026 -3.447951 -27.794829 2.246820 9.362263 26.935320 0.772844 -9.981173 -16.148711 1.766651 -8.362021 -23.819274 0.000000 0.000000 0.000000 23.300430 0.523993 -22.480777 -1.798344 -8.432677 24.036169 -0.895863 11.244454 -17.509321 -0.732469 5.468010 -15.248411 3.748684 3.976536 -10.730621 -0.647251 4.605905 -3.844422 -2.188334 2.145292 2.342356 -28.081379 -4.784592 6.721268 38.659893 -11.289350 -0.756831 19.179397 -7.192977 2.831342 0.000000 0.000000 0.000000 36.061467 25.179754 -66.282037 63.065897 -57.050850 36.908194 -33.361597 -65.059779 -18.294933 0.000000 0.000000 0.000000 -7.125000 0.000000 0.000000 -51.005218 41.807315 -5.815052 0.000000 0.000000 0.000000 -30.819021 20.248765 51.961949 -44.344919 -50.421019 -21.739050 22.096919 -7.139168 9.913119 0.000000 0.000000 0.000000 7.125000 0.000000 0.000000 39.473415 36.684362 10.180308
-5.930746 15.959627 39.450431 -178.140477 -14.952932 -165.977791 0.000000 0.000000 0.000000 -14.890773 -3.481423 -27.723041 2.256873 9.381802 26.997076 0.796756 -9.603845 -16.293198 1.812026 -8.463017 -24.129481 0.000000 0.000000 0.000000 23.133770 1.697920 -22.194592 -1.846114 -8.537831 24.360098 -0.949830 10.244017 -17.763200 -0.758062 5.560553 -15.514463 3.623234 3.875579 -10.520592 -0.560041 4.491935 -3.865878 -2.057467 2.087097 2.181341 -28.360883 -5.153538 7.523264 38.696249 -11.941179 -1.386240 19.206674 -7.598864 2.794944 0.000000 0.000000 0.000000 31.869279 24.128648 -60.876422 53.092234 -54.135264 28.671366 -21.709675 -54.490171 -13.654234 0.000000 0.000000 0.000000 -7.125000 0.000000 0.000000 -41.087124 39.834529 -6.528811 0.000000 0.000000 0.000000 -26.858716 18.105033 45.558418 -37.046703 -46.191345 -16.282832 11.477921 0.002665 10.467086 0.000000 0.000000 0.000000 7.125000 0.000000 0.000000 32.254085 38.303696 6.137187
